<?xml version="1.0" encoding="UTF-8"?>
<!-- Creator: CorelDRAW -->
<svg xmlns="http://www.w3.org/2000/svg" xmlns:xlink="http://www.w3.org/1999/xlink" xmlns:xodm="http://www.corel.com/coreldraw/odm/2003" xml:space="preserve" width="512px" height="512px" version="1.1" style="shape-rendering:geometricPrecision; text-rendering:geometricPrecision; image-rendering:optimizeQuality; fill-rule:evenodd; clip-rule:evenodd" viewBox="0 0 512 512">
 <defs>
  <style type="text/css">
   <![CDATA[
    .fil1 {fill:black}
    .fil0 {fill:#FCEA00}
   ]]>
  </style>
 </defs>
 <g id="Katman_x0020_1">
  <metadata id="CorelCorpID_0Corel-Layer"></metadata>
  <g id="_2182683466304">
   <polygon class="fil0" points="-0.27,0.27 511.73,0.27 511.73,512.27 -0.27,512.27 "></polygon>
   <path class="fil1" d="M238.77 44.64c-17.05,1.2 -32.41,5.28 -45.86,12 -11.52,6 -24.48,15.6 -32.16,25.69 -23.53,30.48 -22.57,47.77 -22.57,93.14l0 173.33c0,18.72 0.24,34.8 6.96,51.13 11.04,26.65 30.97,45.37 59.54,55.93 30.72,11.05 68.89,9.12 96.26,-5.04 23.53,-12.24 43.21,-33.37 49.93,-65.29 3.6,-16.81 2.4,-37.94 2.4,-55.7 0,-22.81 1.45,-19.44 -38.4,-19.44 -7.45,0 -21.61,-0.72 -28.33,0.24 -8.64,1.44 -6.48,12.48 -6.48,22.56 0,19.21 1.92,36.01 -8.41,49.21 -9.84,12.49 -30.72,12.97 -42.01,4.09 -13.68,-10.81 -13.44,-23.05 -13.44,-44.66l0 -173.56c0,-8.16 -0.72,-19.93 0.96,-27.85 5.04,-21.6 27.13,-30.97 43.45,-22.8 4.08,1.92 5.52,3.84 8.16,6.24 16.33,15.36 6.25,51.85 10.81,61.45 1.92,3.84 6,3.6 11.04,3.6 7.44,0 53.29,0.96 56.89,-0.96 5.28,-2.88 3.84,-18.48 3.84,-25.44 0,-19.69 0,-33.85 -6,-51.86 -2.4,-7.44 -5.28,-13.44 -8.88,-19.68 -3.84,-6.72 -5.28,-7.68 -8.88,-12.72 -1.2,-1.68 -2.4,-2.4 -3.6,-4.08 -17.53,-19.21 -47.77,-31.69 -85.22,-29.53z"></path>
   <path class="fil1" d="M286.3 215.32c-5.04,2.16 -5.28,5.76 -5.28,12 0,8.65 -0.48,47.06 0.72,50.18 0.72,1.68 2.4,3.36 3.84,4.08 3.36,1.68 56.65,0.72 58.09,0 4.8,-1.92 4.8,-5.76 4.8,-12 0,-8.17 0.48,-47.06 -0.48,-49.7 -1.68,-4.8 -5.76,-5.28 -12,-5.28 -8.88,0.24 -46.33,-0.48 -49.69,0.72z"></path>
  </g>
 </g>
</svg>
