<?xml version="1.0" encoding="utf-8"?>
<!-- Generator: Adobe Illustrator 16.0.0, SVG Export Plug-In . SVG Version: 6.00 Build 0)  -->
<!DOCTYPE svg PUBLIC "-//W3C//DTD SVG 1.1//EN" "http://www.w3.org/Graphics/SVG/1.1/DTD/svg11.dtd">
<svg version="1.1" id="Capa_1" xmlns="http://www.w3.org/2000/svg" xmlns:xlink="http://www.w3.org/1999/xlink" x="0px" y="0px"
	 width="81" height="48" viewBox="0 0 316.429 122.857" enable-background="new 0 0 316.429 122.857"
	 xml:space="preserve">
<g>
	<path fill="#434343" d="M39.76,43.517c3.64,0,6.976,0.398,10.01,1.19c3.032,0.794,5.53,1.798,7.49,3.01
		c2.426,1.494,4.316,3.338,5.67,5.53c1.352,2.194,2.03,4.738,2.03,7.63c0,3.268-1.028,5.95-3.08,8.05
		c-2.054,2.1-4.714,3.15-7.98,3.15c-3.268,0-5.88-0.932-7.84-2.8c-1.96-1.866-2.94-4.386-2.94-7.56c0-2.986,0.932-5.482,2.8-7.49
		c1.866-2.006,4.012-3.336,6.44-3.99c-0.748-0.932-1.868-1.726-3.36-2.38c-1.494-0.652-3.174-0.98-5.04-0.98
		c-2.894,0-5.438,0.84-7.63,2.52c-2.194,1.68-4.038,4.014-5.53,7c-1.494,2.988-2.638,6.488-3.43,10.5
		c-0.794,4.014-1.19,8.4-1.19,13.16c0,7.188,0.91,12.834,2.73,16.939c1.82,4.108,4.152,7,7,8.681c2.846,1.68,5.81,2.52,8.89,2.52
		c2.612,0,5.6-0.722,8.96-2.17c3.36-1.446,6.486-4.502,9.38-9.17l2.38,0.84c-1.028,3.454-2.708,6.908-5.04,10.36
		c-2.334,3.454-5.368,6.278-9.1,8.47c-3.734,2.192-8.308,3.29-13.72,3.29c-6.068,0-11.55-1.33-16.45-3.99s-8.82-6.766-11.76-12.319
		c-2.94-5.553-4.41-12.717-4.41-21.49c0-8.4,1.516-15.47,4.55-21.21c3.032-5.74,7.162-10.056,12.39-12.95
		C27.206,44.965,33.132,43.517,39.76,43.517z"/>
	<path fill="#434343" d="M91.278,118.837c-6.254,0-10.78-1.633-13.58-4.9c-2.8-3.266-4.2-7.232-4.2-11.9
		c0-4.012,0.91-7.279,2.73-9.8c1.82-2.52,4.176-4.596,7.07-6.229c2.892-1.632,5.95-2.986,9.17-4.061c3.22-1.071,6.3-2.146,9.24-3.22
		c2.94-1.072,5.32-2.31,7.14-3.71c1.82-1.4,2.73-3.172,2.73-5.32v-10.92c0-2.426-0.398-4.596-1.19-6.51
		c-0.794-1.912-2.008-3.382-3.64-4.41c-1.634-1.026-3.758-1.54-6.37-1.54c-1.868,0-3.734,0.258-5.6,0.77
		c-1.868,0.514-3.408,1.378-4.62,2.59c2.612,0.934,4.642,2.358,6.09,4.27c1.446,1.914,2.17,4.084,2.17,6.51
		c0,3.174-1.098,5.694-3.29,7.56c-2.194,1.868-4.784,2.8-7.77,2.8c-3.36,0-5.904-1.05-7.63-3.15c-1.728-2.1-2.59-4.642-2.59-7.63
		c0-2.706,0.676-4.946,2.03-6.72c1.352-1.772,3.242-3.452,5.67-5.04c2.612-1.492,5.762-2.66,9.45-3.5
		c3.686-0.84,7.676-1.26,11.97-1.26c4.292,0,8.166,0.444,11.62,1.33c3.452,0.888,6.346,2.498,8.68,4.83
		c2.146,2.148,3.546,4.784,4.2,7.91c0.652,3.128,0.98,7.07,0.98,11.83v38.08c0,2.24,0.232,3.828,0.7,4.761
		c0.466,0.934,1.26,1.399,2.38,1.399c0.932,0,1.82-0.231,2.66-0.7c0.84-0.466,1.632-1.025,2.38-1.68l1.4,2.38
		c-1.96,1.681-4.224,2.964-6.79,3.851c-2.568,0.886-5.438,1.33-8.61,1.33c-5.6,0-9.31-1.143-11.13-3.431
		c-1.82-2.286-2.778-4.922-2.87-7.91c-2.334,3.828-5.204,6.675-8.61,8.54C99.84,117.903,95.85,118.837,91.278,118.837z
		 M102.058,109.876c1.772,0,3.43-0.42,4.97-1.26s3.056-2.332,4.55-4.479v-28.7c-1.12,1.868-2.684,3.43-4.69,4.689
		c-2.008,1.261-4.06,2.614-6.16,4.061c-2.1,1.448-3.85,3.29-5.25,5.53c-1.4,2.239-2.1,5.228-2.1,8.96c0,4.014,0.84,6.884,2.52,8.609
		C97.578,109.015,99.63,109.876,102.058,109.876z"/>
	<path fill="#434343" d="M173.876,8.237v96.601c0,3.92,0.676,6.579,2.031,7.979c1.352,1.4,3.662,2.1,6.93,2.1v2.94
		c-1.775-0.092-4.434-0.21-7.98-0.35c-3.549-0.141-7.141-0.21-10.779-0.21c-3.641,0-7.305,0.069-10.991,0.21
		c-3.688,0.14-6.464,0.258-8.33,0.35v-2.94c3.267,0,5.576-0.699,6.931-2.1c1.352-1.4,2.029-4.06,2.029-7.979v-79.8
		c0-4.2-0.63-7.302-1.89-9.31c-1.26-2.006-3.618-3.01-7.07-3.01v-2.94c2.986,0.28,5.88,0.42,8.681,0.42
		c3.826,0,7.466-0.162,10.919-0.49C167.808,9.381,170.984,8.891,173.876,8.237z"/>
	<path fill="#434343" d="M217.976,43.937v60.9c0,3.92,0.676,6.579,2.029,7.979c1.352,1.4,3.662,2.1,6.93,2.1v2.94
		c-1.68-0.092-4.295-0.21-7.84-0.35c-3.549-0.141-7.141-0.21-10.779-0.21c-3.641,0-7.328,0.069-11.061,0.21
		c-3.734,0.14-6.535,0.258-8.4,0.35v-2.94c3.266,0,5.576-0.699,6.93-2.1c1.352-1.4,2.031-4.06,2.031-7.979V60.737
		c0-4.2-0.631-7.302-1.891-9.31c-1.26-2.006-3.619-3.01-7.07-3.01v-2.94c2.986,0.28,5.881,0.42,8.68,0.42
		c3.92,0,7.582-0.162,10.99-0.49C211.931,45.081,215.082,44.591,217.976,43.937z M207.054,9.357c3.922,0,7.023,0.958,9.311,2.87
		c2.287,1.914,3.43,4.55,3.43,7.91c0,3.36-1.143,5.999-3.43,7.91c-2.287,1.914-5.389,2.87-9.311,2.87
		c-3.92,0-7.023-0.956-9.309-2.87c-2.289-1.912-3.43-4.55-3.43-7.91c0-3.36,1.141-5.996,3.43-7.91
		C200.031,10.315,203.134,9.357,207.054,9.357z"/>
	<path fill="#434343" d="M302.673,43.937v58.66c0,4.2,0.652,7.304,1.961,9.31c1.305,2.009,3.639,3.01,7,3.01v2.94
		c-2.895-0.28-5.789-0.42-8.68-0.42c-3.92,0-7.561,0.14-10.92,0.42c-3.361,0.28-6.535,0.792-9.521,1.54v-12.6
		c-2.24,4.668-5.344,8.004-9.309,10.01c-3.969,2.006-8.379,3.01-13.23,3.01c-3.92,0-7.094-0.514-9.52-1.54
		c-2.43-1.025-4.342-2.332-5.74-3.92c-1.588-1.771-2.709-4.105-3.361-7c-0.654-2.892-0.979-6.626-0.979-11.2v-35.42
		c0-4.2-0.631-7.302-1.891-9.31c-1.26-2.006-3.619-3.01-7.07-3.01v-2.94c2.986,0.28,5.881,0.42,8.68,0.42
		c3.92,0,7.582-0.162,10.99-0.49c3.406-0.326,6.557-0.816,9.451-1.47v57.96c0,2.334,0.209,4.388,0.629,6.16
		c0.42,1.773,1.236,3.149,2.449,4.13c1.213,0.979,2.986,1.47,5.32,1.47c3.732,0,6.93-1.562,9.59-4.689
		c2.66-3.126,3.99-6.977,3.99-11.551v-36.68c0-4.2-0.629-7.302-1.889-9.31c-1.262-2.006-3.619-3.01-7.07-3.01v-2.94
		c2.986,0.28,5.879,0.42,8.68,0.42c3.92,0,7.582-0.162,10.99-0.49C296.63,45.081,299.779,44.591,302.673,43.937z"/>
</g>
</svg>
